<svg width="17" height="12" viewBox="0 0 17 12" fill="none" xmlns="http://www.w3.org/2000/svg">
<path fill-rule="evenodd" clip-rule="evenodd" d="M16 0.666748H15C14.4477 0.666748 14 1.11446 14 1.66675V10.3334C14 10.8857 14.4477 11.3334 15 11.3334H16C16.5523 11.3334 17 10.8857 17 10.3334V1.66675C17 1.11446 16.5523 0.666748 16 0.666748ZM10.3333 3.00008H11.3333C11.8856 3.00008 12.3333 3.4478 12.3333 4.00008V10.3334C12.3333 10.8857 11.8856 11.3334 11.3333 11.3334H10.3333C9.78105 11.3334 9.33333 10.8857 9.33333 10.3334V4.00008C9.33333 3.4478 9.78105 3.00008 10.3333 3.00008ZM6.66667 5.33341H5.66667C5.11438 5.33341 4.66667 5.78113 4.66667 6.33341V10.3334C4.66667 10.8857 5.11438 11.3334 5.66667 11.3334H6.66667C7.21895 11.3334 7.66667 10.8857 7.66667 10.3334V6.33341C7.66667 5.78113 7.21895 5.33341 6.66667 5.33341ZM2 7.33341H1C0.447715 7.33341 0 7.78113 0 8.33341V10.3334C0 10.8857 0.447715 11.3334 1 11.3334H2C2.55228 11.3334 3 10.8857 3 10.3334V8.33341C3 7.78113 2.55228 7.33341 2 7.33341Z" fill="white"/>
</svg>
