<svg width="25" height="24" viewBox="0 0 25 24" fill="none" xmlns="http://www.w3.org/2000/svg">
<g id="Social/instagram">
<path id="Exclude" fill-rule="evenodd" clip-rule="evenodd" d="M12.0094 5.84866C8.60223 5.84866 5.85402 8.59688 5.85402 12.004C5.85402 15.4112 8.60223 18.1594 12.0094 18.1594C15.4165 18.1594 18.1647 15.4112 18.1647 12.004C18.1647 8.59688 15.4165 5.84866 12.0094 5.84866ZM12.0094 16.0058C9.80759 16.0058 8.00759 14.2112 8.00759 12.004C8.00759 9.79688 9.80223 8.00223 12.0094 8.00223C14.2165 8.00223 16.0112 9.79688 16.0112 12.004C16.0112 14.2112 14.2112 16.0058 12.0094 16.0058ZM19.8522 5.59688C19.8522 6.39509 19.2094 7.03259 18.4165 7.03259C17.6183 7.03259 16.9808 6.38973 16.9808 5.59688C16.9808 4.80402 17.6237 4.16116 18.4165 4.16116C19.2094 4.16116 19.8522 4.80402 19.8522 5.59688ZM23.929 7.05402C23.8379 5.1308 23.3987 3.42723 21.9897 2.02366C20.5862 0.620089 18.8826 0.180804 16.9594 0.084375C14.9772 -0.028125 9.03616 -0.028125 7.05402 0.084375C5.13616 0.175446 3.43259 0.614732 2.02366 2.0183C0.614732 3.42188 0.180804 5.12545 0.084375 7.04866C-0.028125 9.0308 -0.028125 14.9719 0.084375 16.954C0.175446 18.8772 0.614732 20.5808 2.02366 21.9844C3.43259 23.3879 5.1308 23.8272 7.05402 23.9237C9.03616 24.0362 14.9772 24.0362 16.9594 23.9237C18.8826 23.8326 20.5862 23.3933 21.9897 21.9844C23.3933 20.5808 23.8326 18.8772 23.929 16.954C24.0415 14.9719 24.0415 9.03616 23.929 7.05402ZM21.3683 19.0808C20.9504 20.1308 20.1415 20.9397 19.0862 21.3629C17.5058 21.9897 13.7558 21.8451 12.0094 21.8451C10.2629 21.8451 6.50759 21.9844 4.93259 21.3629C3.88259 20.9451 3.07366 20.1362 2.65045 19.0808C2.02366 17.5004 2.1683 13.7504 2.1683 12.004C2.1683 10.2576 2.02902 6.50223 2.65045 4.92723C3.0683 3.87723 3.87723 3.0683 4.93259 2.64509C6.51295 2.0183 10.2629 2.16295 12.0094 2.16295C13.7558 2.16295 17.5112 2.02366 19.0862 2.64509C20.1362 3.06295 20.9451 3.87188 21.3683 4.92723C21.9951 6.50759 21.8504 10.2576 21.8504 12.004C21.8504 13.7504 21.9951 17.5058 21.3683 19.0808Z" fill="#8B3C50"/>
</g>
</svg>
