<svg width="24" height="24" viewBox="0 0 24 24" fill="none" xmlns="http://www.w3.org/2000/svg">
<g id="Social/linkedin">
<path id="Combined-Shape" fill-rule="evenodd" clip-rule="evenodd" d="M7.60561 9.20419H4.0126V19.9997H7.60561V9.20419ZM7.84193 5.86471C7.81861 4.80621 7.06168 4 5.83253 4C4.60338 4 3.7998 4.80621 3.7998 5.86471C3.7998 6.90128 4.57963 7.7307 5.78589 7.7307H5.80885C7.06168 7.7307 7.84193 6.90128 7.84193 5.86471ZM20.5633 13.8099C20.5633 10.494 18.7908 8.9507 16.4264 8.9507C14.5188 8.9507 13.6647 9.99852 13.1878 10.7336V9.20448H9.59436C9.64172 10.2175 9.59436 20 9.59436 20H13.1878V13.9709C13.1878 13.6483 13.2111 13.3264 13.3061 13.0954C13.5658 12.4508 14.1571 11.7835 15.1497 11.7835C16.4504 11.7835 16.9703 12.7734 16.9703 14.2241V19.9997H20.5632L20.5633 13.8099Z" fill="#8B3C50"/>
</g>
</svg>
