<svg width="377" height="28" viewBox="0 0 377 28" fill="none" xmlns="http://www.w3.org/2000/svg">
<g clip-path="url(#clip0_1_1328)">
<path d="M3.74378 5.78206C3.74378 13.0307 17.4372 10.4347 17.4372 19.9759C17.4372 24.8308 13.1876 28 8.31389 28C4.83993 28 1.85503 26.9211 0.236094 25.4714L0 18.7622H0.387869C1.28165 23.8868 4.36774 27.41 8.39821 27.41C12.0408 27.41 14.2331 24.9994 14.2331 21.7796C14.2331 13.233 0.539644 16.5202 0.539644 7.40036C0.539644 3.30403 3.94615 0 9.12336 0C11.8384 0 14.1488 0.927152 16.2062 2.24202V7.90608H15.852C15.0763 3.37146 12.4455 0.539434 8.97158 0.539434C5.49762 0.539434 3.74378 2.98374 3.74378 5.78206Z" fill="#1D1D1B"/>
<path d="M42.8848 0.387695L43.4582 8.49606H43.104C41.3333 2.714 40.0517 1.0957 36.2573 1.0957H33.441V24.5442C33.441 26.7525 34.5203 26.9885 37.1848 27.2245V27.6123H26.0041V27.2245C28.6686 26.9885 29.7984 26.7525 29.7984 24.5442V1.07885H26.9316C23.1372 1.07885 21.8724 2.714 20.0849 8.47921H19.7307L20.3378 0.387695H42.8848Z" fill="#1D1D1B"/>
<path d="M49.057 27.6123H41.249V27.2245C42.7162 27.0728 43.8461 26.8368 44.3014 25.5557L52.9188 2.56229L51.9576 0.0336914H55.752L65.7354 25.7917C66.157 26.8368 67.2869 27.1908 68.5517 27.2245V27.6123H58.2647V27.2245C60.7774 27.1403 61.5869 26.6514 61.5869 25.5894C61.5869 25.1679 61.4351 24.6117 61.199 24.0048L58.4165 16.7561H48.5174L45.8529 23.9711C45.6168 24.5948 45.4987 25.1005 45.4987 25.4882C45.4987 26.6514 46.46 27.1571 49.057 27.2414V27.6291V27.6123ZM53.3404 3.64116L48.7366 16.0481H58.1298L53.3404 3.64116Z" fill="#1D1D1B"/>
<path d="M91.4022 28L72.6833 4.29859V24.3925C72.6833 26.7188 73.6445 27.0223 77.2534 27.2245V27.6123H68.0457V27.2245C70.9126 26.9885 71.8401 26.7188 71.8401 24.3925V3.25344C70.5247 1.73628 69.3611 0.842843 67.9783 0.775414V0.387695H74.3528L90.8963 21.9145V3.60744C90.8963 1.28113 89.935 0.977701 86.3262 0.775414V0.387695H95.5338V0.775414C92.667 1.01142 91.7395 1.28113 91.7395 3.60744V28H91.3853H91.4022Z" fill="#1D1D1B"/>
<path d="M120.273 0.387707L120.847 8.49608H120.492C118.722 2.71402 117.44 1.09571 113.646 1.09571H110.829V24.5442C110.829 26.7525 111.909 26.9885 114.573 27.2245V27.6123H103.393V27.2245C106.057 26.9885 107.187 26.7525 107.187 24.5442V1.07886H104.32C100.526 1.07886 99.2609 2.71402 97.4733 8.47922H97.1191L97.6925 0.37085H120.24L120.273 0.387707Z" fill="#1D1D1B"/>
<path d="M145.873 13.4521C145.873 21.9482 140.426 28 133.579 28C125.838 28 121.555 21.5605 121.555 14.5479C121.555 6.05178 127.002 0 133.849 0C141.589 0 145.873 6.43949 145.873 13.4521ZM125.535 13.9916C125.535 20.3468 128.166 27.4437 133.882 27.4437C139.06 27.4437 141.893 21.3919 141.893 13.9916C141.893 7.63636 139.262 0.539434 133.545 0.539434C128.368 0.539434 125.535 6.59121 125.535 13.9916Z" fill="#1D1D1B"/>
<path d="M169.415 28L150.696 4.29859V24.3925C150.696 26.7188 151.657 27.0223 155.266 27.2245V27.6123H146.058V27.2245C148.925 26.9885 149.853 26.7188 149.853 24.3925V3.25344C148.537 1.73628 147.374 0.842843 145.991 0.775414V0.387695H152.365L168.909 21.9145V3.60744C168.909 1.28113 167.947 0.977701 164.339 0.775414V0.387695H173.546V0.775414C170.679 1.01142 169.752 1.28113 169.752 3.60744V28H169.398H169.415Z" fill="#1D1D1B"/>
<path d="M206.464 5.78206C206.464 13.0307 220.158 10.4347 220.158 19.9759C220.158 24.8308 215.908 28 211.035 28C207.561 28 204.576 26.9211 202.957 25.4714L202.721 18.7622H203.109C204.002 23.8868 207.088 27.41 211.119 27.41C214.762 27.41 216.954 24.9994 216.954 21.7796C216.954 13.2161 203.26 16.5033 203.26 7.3835C203.26 3.30403 206.65 0 211.827 0C214.525 0 216.853 0.927152 218.91 2.24202V7.90608H218.556C217.78 3.37146 215.149 0.539434 211.675 0.539434C208.201 0.539434 206.448 2.98374 206.448 5.78206" fill="#1D1D1B"/>
<path d="M245.589 0.387707L246.162 8.49608H245.808C244.037 2.71402 242.756 1.09571 238.961 1.09571H236.145V24.5442C236.145 26.7525 237.224 26.9885 239.889 27.2245V27.6123H228.708V27.2245C231.372 26.9885 232.502 26.7525 232.502 24.5442V1.07886H229.635C225.841 1.07886 224.576 2.71402 222.789 8.47922H222.435L223.008 0.37085H245.555L245.589 0.387707Z" fill="#1D1D1B"/>
<path d="M251.778 27.6123H243.97V27.2245C245.437 27.0728 246.567 26.8368 247.022 25.5557L255.64 2.56229L254.678 0.0336914H258.473L268.456 25.7917C268.878 26.8368 270.008 27.1908 271.272 27.2245V27.6123H260.985V27.2245C263.498 27.1403 264.308 26.6514 264.308 25.5894C264.308 25.1679 264.156 24.6117 263.92 24.0048L261.137 16.7561H251.238L248.574 23.9711C248.337 24.5948 248.219 25.1005 248.219 25.4882C248.219 26.6514 249.181 27.1571 251.778 27.2414V27.6291V27.6123ZM256.078 3.64116L251.474 16.0481H260.867L256.078 3.64116Z" fill="#1D1D1B"/>
<path d="M294.106 28L275.387 4.29859V24.3925C275.387 26.7188 276.348 27.0223 279.957 27.2245V27.6123H270.75V27.2245C273.616 26.9885 274.544 26.7188 274.544 24.3925V3.25344C273.229 1.73628 272.065 0.842843 270.682 0.775414V0.387695H277.057L293.6 21.9145V3.60744C293.6 1.28113 292.639 0.977701 289.03 0.775414V0.387695H298.238V0.775414C295.371 1.01142 294.443 1.28113 294.443 3.60744V28H294.089H294.106Z" fill="#1D1D1B"/>
<path d="M322.977 0.387707L323.55 8.49608H323.196C321.425 2.71402 320.144 1.09571 316.349 1.09571H313.533V24.5442C313.533 26.7525 314.612 26.9885 317.277 27.2245V27.6123H306.096V27.2245C308.761 26.9885 309.89 26.7525 309.89 24.5442V1.07886H307.024C303.229 1.07886 301.964 2.71402 300.177 8.47922H299.823L300.396 0.37085H322.943L322.977 0.387707Z" fill="#1D1D1B"/>
<path d="M348.577 13.4521C348.577 21.9482 343.129 28 336.283 28C328.542 28 324.259 21.5605 324.259 14.5479C324.259 6.05178 329.706 0 336.553 0C344.293 0 348.577 6.43949 348.577 13.4521ZM328.239 13.9916C328.239 20.3468 330.869 27.4437 336.586 27.4437C341.763 27.4437 344.597 21.3919 344.597 13.9916C344.597 7.63636 341.966 0.539434 336.249 0.539434C331.072 0.539434 328.239 6.59121 328.239 13.9916Z" fill="#1D1D1B"/>
<path d="M372.118 28L353.399 4.29859V24.3925C353.399 26.7188 354.361 27.0223 357.969 27.2245V27.6123H348.762V27.2245C351.629 26.9885 352.556 26.7188 352.556 24.3925V3.25344C351.241 1.73628 350.077 0.842843 348.694 0.775414V0.387695H355.069L371.612 21.9145V3.60744C371.612 1.28113 370.651 0.977701 367.042 0.775414V0.387695H376.25V0.775414C373.383 1.01142 372.456 1.28113 372.456 3.60744V28H372.101H372.118Z" fill="#1D1D1B"/>
<path d="M190.342 19.0656C189.179 20.2456 187.627 21.0042 185.637 21.0042C182.99 21.0042 180.41 19.4365 180.41 16.6719C180.41 14.4973 182.045 13.0981 184.052 12.2721L183.85 12.0361C183.175 11.2944 182.332 10.1481 182.332 8.56352C182.332 6.45636 184.103 4.60205 186.498 4.60205C188.892 4.60205 190.41 6.10235 190.41 7.80494C190.41 9.89525 188.572 10.8898 186.228 11.7327L191.304 17.2282C191.911 16.183 192.248 14.9356 192.248 13.6376C192.248 12.3396 191.236 12.0867 189.752 12.0698V11.817H195.149V12.0698C193.698 12.0867 193.024 12.3733 192.821 13.705C192.619 15.0704 192.181 16.3685 191.557 17.481L191.911 17.8856C193.614 19.7231 194.761 20.4311 195.874 20.5491V20.7851H192.349C191.776 20.4816 191.337 20.1108 190.359 19.0825M190.073 18.7622C189.82 18.5093 189.567 18.2228 189.263 17.9025L184.238 12.4238C183.007 13.1319 182.501 14.4467 182.501 15.8965C182.501 18.4588 184.288 20.0771 186.649 20.0771C187.982 20.0771 189.162 19.5713 190.09 18.7622M186.11 11.581C188.218 10.755 188.707 9.47381 188.707 7.77123C188.707 6.27093 187.965 4.9392 186.346 4.9392C184.963 4.9392 183.985 5.93378 183.985 7.68694C183.985 9.4401 185.132 10.5021 185.84 11.3281L186.093 11.5978L186.11 11.581Z" fill="#1D1D1B"/>
<path d="M195.638 23.3979H180.511V25.7917H195.638V23.3979Z" fill="#8B3C50"/>
</g>
<defs>
<clipPath id="clip0_1_1328">
<rect width="376.25" height="28" fill="white"/>
</clipPath>
</defs>
</svg>
