<svg width="377" height="167" viewBox="0 0 377 167" fill="none" xmlns="http://www.w3.org/2000/svg">
<g clip-path="url(#clip0_543_1253)">
<mask id="path-1-inside-1_543_1253" fill="white">
<path d="M311.24 34.4858C311.24 77.7188 396.313 62.2354 396.313 119.142C396.313 148.098 369.871 167 339.563 167C317.928 167 299.43 160.565 289.292 151.919L287.829 111.903H290.232C295.772 142.468 315.002 163.481 339.981 163.481C362.555 163.481 376.247 149.104 376.247 129.9C376.247 78.8248 291.173 98.4304 291.173 44.0373C291.173 19.5051 312.285 -0.100586 344.579 -0.100586C361.406 -0.100586 375.829 5.42922 388.579 13.2715V47.0535H386.384C381.577 20.0078 365.273 3.11675 343.639 3.11675C322.004 3.11675 311.135 17.6953 311.135 34.3853"/>
</mask>
<path d="M289.292 151.919L288.542 151.946L288.554 152.275L288.805 152.489L289.292 151.919ZM287.829 111.903V111.153H287.051L287.079 111.93L287.829 111.903ZM290.232 111.903L290.97 111.769L290.859 111.153H290.232V111.903ZM388.579 13.2715H389.329V12.8523L388.972 12.6326L388.579 13.2715ZM388.579 47.0535V47.8035H389.329V47.0535H388.579ZM386.384 47.0535L385.646 47.1848L385.756 47.8035H386.384V47.0535ZM310.49 34.4858C310.49 45.6076 315.99 52.9525 324.106 58.5666C332.168 64.144 342.909 68.078 353.494 72.3811C364.133 76.7063 374.651 81.4153 382.517 88.5424C390.344 95.6342 395.563 105.138 395.563 119.142H397.063C397.063 104.693 391.648 94.792 383.524 87.4308C375.439 80.1051 364.688 75.3129 354.059 70.9915C343.375 66.648 332.848 62.79 324.959 57.333C317.123 51.9125 311.99 44.9805 311.99 34.4858H310.49ZM395.563 119.142C395.563 147.538 369.62 166.25 339.563 166.25V167.75C370.123 167.75 397.063 148.658 397.063 119.142H395.563ZM339.563 166.25C318.05 166.25 299.743 159.847 289.778 151.348L288.805 152.489C299.116 161.284 317.807 167.75 339.563 167.75V166.25ZM290.041 151.891L288.578 111.876L287.079 111.93L288.542 151.946L290.041 151.891ZM287.829 112.653H290.232V111.153H287.829V112.653ZM289.494 112.037C295.07 142.801 314.5 164.231 339.981 164.231V162.731C315.504 162.731 296.473 142.135 290.97 111.769L289.494 112.037ZM339.981 164.231C351.43 164.231 360.693 160.582 367.099 154.433C373.505 148.283 376.997 139.685 376.997 129.9H375.497C375.497 139.318 372.143 147.511 366.06 153.351C359.976 159.191 351.106 162.731 339.981 162.731V164.231ZM376.997 129.9C376.997 116.872 371.549 108.312 363.414 101.993C355.334 95.7178 344.583 91.642 333.982 87.514C323.325 83.3642 312.81 79.1587 304.944 72.6405C297.128 66.1636 291.923 57.3966 291.923 44.0373H290.423C290.423 57.8745 295.852 67.0542 303.987 73.7955C312.072 80.4953 322.826 84.7793 333.438 88.9117C344.105 93.0658 354.623 97.0648 362.494 103.178C370.31 109.248 375.497 117.391 375.497 129.9H376.997ZM291.923 44.0373C291.923 20.0249 312.585 0.649414 344.579 0.649414V-0.850586C311.985 -0.850586 290.423 18.9853 290.423 44.0373H291.923ZM344.579 0.649414C361.231 0.649414 375.519 6.11915 388.186 13.9103L388.972 12.6326C376.138 4.73928 361.581 -0.850586 344.579 -0.850586V0.649414ZM387.829 13.2715V47.0535H389.329V13.2715H387.829ZM388.579 46.3035H386.384V47.8035H388.579V46.3035ZM387.123 46.9223C382.276 19.6585 365.762 2.36675 343.639 2.36675V3.86675C364.784 3.86675 380.877 20.3571 385.646 47.1848L387.123 46.9223ZM343.639 2.36675C332.644 2.36675 324.311 6.07672 318.729 11.9769C313.155 17.8685 310.385 25.8803 310.385 34.3853H311.885C311.885 26.2002 314.549 18.5778 319.819 13.0077C325.08 7.44607 332.999 3.86675 343.639 3.86675V2.36675Z" fill="#E3CFD4" mask="url(#path-1-inside-1_543_1253)"/>
<path d="M22.9339 34.4859C22.9339 45.4509 28.3426 52.6926 36.3883 58.2582C43.3074 63.0446 52.2133 66.6158 61.3414 70.2761C62.7924 70.858 64.2492 71.4421 65.7044 72.0337C76.341 76.358 86.917 81.0878 94.8379 88.2646C102.739 95.4237 108.007 105.027 108.007 119.142C108.007 147.818 81.8148 166.625 51.6319 166.625C30.1479 166.625 11.8081 160.259 1.72984 151.74L0.286912 112.278H2.09363C7.72422 142.776 27.0094 163.856 52.1544 163.856C63.5228 163.856 72.6875 160.234 79.0127 154.162C85.338 148.09 88.7952 139.594 88.7954 129.901C88.8218 117.027 83.4524 108.59 75.4016 102.347C67.6421 96.3311 57.3825 92.3479 47.106 88.3581C46.7569 88.2225 46.4077 88.087 46.0587 87.9513C35.4068 83.8122 24.8224 79.5902 16.8934 73.0281C8.98939 66.4866 3.72188 57.6165 3.72188 44.1379C3.72188 19.966 24.7131 0.375 56.753 0.375C73.4138 0.375 87.7131 5.82341 100.378 13.5819V46.7791H98.8718C93.9755 19.804 77.608 2.84234 55.8124 2.84234C44.9065 2.84234 36.6771 6.51964 31.1754 12.3352C25.6777 18.1464 22.9339 26.0609 22.9339 34.4859Z" stroke="#E3CFD4" stroke-width="0.75"/>
<mask id="path-4-inside-2_543_1253" fill="white">
<path d="M184.361 68.9716C197.426 64.0451 200.561 56.4039 200.561 46.2492C200.561 37.3009 195.962 29.3581 185.929 29.3581C177.359 29.3581 171.297 35.2901 171.297 45.7465C171.297 56.2028 178.509 62.5369 182.794 67.4635L184.361 69.0722V68.9716ZM209.131 111.802C207.563 110.294 205.996 108.585 204.114 106.675L172.865 73.9987C165.236 78.2215 161.996 86.0637 161.996 94.7103C161.996 109.993 173.074 119.645 187.81 119.645C196.067 119.645 203.487 116.628 209.236 111.802M211.117 113.713C203.905 120.751 194.186 125.275 181.853 125.275C165.34 125.275 149.35 115.925 149.35 99.4358C149.35 86.4659 159.487 78.1209 172.029 73.1944L170.775 71.8873C166.594 67.3629 161.369 60.6266 161.369 51.1757C161.369 38.608 172.342 27.6489 187.288 27.6489C202.233 27.6489 211.639 36.5971 211.639 46.7519C211.639 59.2191 200.247 65.151 185.616 70.1781L217.179 102.955C220.941 96.7212 223.136 89.2811 223.136 81.5393C223.136 73.7976 216.76 72.2895 207.668 72.189V70.6808H241.217V72.189C232.228 72.2895 227.943 73.9987 226.689 81.9415C225.435 90.0854 222.718 97.8271 218.851 104.463L221.15 106.876C231.706 117.835 238.917 122.058 245.815 122.761V124.069H223.867C220.314 122.259 217.492 120.047 211.43 113.914"/>
</mask>
<path d="M184.361 68.9716L184.097 68.2699L183.611 68.4529V68.9716H184.361ZM182.794 67.4635L182.228 67.9557L182.242 67.9717L182.257 67.9869L182.794 67.4635ZM184.361 69.0722L183.824 69.5956L185.111 70.9164V69.0722H184.361ZM204.114 106.675L203.572 107.193L203.58 107.201L204.114 106.675ZM172.865 73.9987L173.407 73.4803L173.008 73.0626L172.502 73.3425L172.865 73.9987ZM172.029 73.1944L172.303 73.8924L173.345 73.4831L172.57 72.6751L172.029 73.1944ZM170.775 71.8873L170.224 72.3964L170.234 72.4066L170.775 71.8873ZM185.616 70.1781L185.372 69.4688L184.259 69.851L185.075 70.6984L185.616 70.1781ZM217.179 102.955L216.638 103.475L217.316 104.179L217.821 103.342L217.179 102.955ZM207.668 72.189H206.918V72.9307L207.66 72.9389L207.668 72.189ZM207.668 70.6808V69.9308H206.918V70.6808H207.668ZM241.217 70.6808H241.967V69.9308H241.217V70.6808ZM241.217 72.189L241.225 72.9389L241.967 72.9306V72.189H241.217ZM226.689 81.9415L225.948 81.8245L225.948 81.8274L226.689 81.9415ZM218.851 104.463L218.203 104.085L217.919 104.572L218.308 104.98L218.851 104.463ZM221.15 106.876L220.607 107.393L220.61 107.396L221.15 106.876ZM245.815 122.761H246.565V122.084L245.891 122.015L245.815 122.761ZM245.815 124.069V124.819H246.565V124.069H245.815ZM223.867 124.069L223.527 124.737L223.687 124.819H223.867V124.069ZM184.626 69.6734C191.259 67.172 195.464 63.9456 197.993 59.9738C200.518 56.0087 201.311 51.3966 201.311 46.2492H199.811C199.811 51.2564 199.036 55.5423 196.728 59.1681C194.423 62.7872 190.528 65.8447 184.097 68.2699L184.626 69.6734ZM201.311 46.2492C201.311 41.6583 200.133 37.2589 197.601 33.9889C195.049 30.694 191.168 28.6081 185.929 28.6081V30.1081C190.723 30.1081 194.158 31.9937 196.415 34.9073C198.69 37.8457 199.811 41.8918 199.811 46.2492H201.311ZM185.929 28.6081C181.465 28.6081 177.597 30.1578 174.849 33.1213C172.106 36.08 170.547 40.3746 170.547 45.7465H172.047C172.047 40.662 173.519 36.7624 175.949 34.1411C178.375 31.5244 181.823 30.1081 185.929 30.1081V28.6081ZM170.547 45.7465C170.547 56.552 178.033 63.1333 182.228 67.9557L183.36 66.9713C178.984 61.9406 172.047 55.8536 172.047 45.7465H170.547ZM182.257 67.9869L183.824 69.5956L184.899 68.5487L183.331 66.94L182.257 67.9869ZM185.111 69.0722V68.9716H183.611V69.0722H185.111ZM209.651 111.262C208.09 109.76 206.558 108.088 204.649 106.149L203.58 107.201C205.433 109.083 207.037 110.829 208.611 112.343L209.651 111.262ZM204.656 106.156L173.407 73.4803L172.323 74.5171L203.572 107.193L204.656 106.156ZM172.502 73.3425C164.564 77.7362 161.246 85.8818 161.246 94.7103H162.746C162.746 86.2457 165.908 78.7068 173.228 74.6549L172.502 73.3425ZM161.246 94.7103C161.246 102.542 164.089 108.979 168.864 113.456C173.633 117.926 180.279 120.395 187.81 120.395V118.895C180.606 118.895 174.344 116.537 169.89 112.361C165.441 108.191 162.746 102.161 162.746 94.7103H161.246ZM187.81 120.395C196.255 120.395 203.843 117.309 209.718 112.377L208.753 111.228C203.131 115.948 195.879 118.895 187.81 118.895V120.395ZM210.593 113.176C203.518 120.081 193.985 124.525 181.853 124.525V126.025C194.387 126.025 204.293 121.421 211.641 114.249L210.593 113.176ZM181.853 124.525C173.727 124.525 165.762 122.222 159.849 117.932C153.953 113.653 150.1 107.406 150.1 99.4358H148.6C148.6 107.954 152.742 114.627 158.968 119.146C165.179 123.652 173.466 126.025 181.853 126.025V124.525ZM150.1 99.4358C150.1 86.9452 159.847 78.7855 172.303 73.8924L171.755 72.4963C159.128 77.4563 148.6 85.9866 148.6 99.4358H150.1ZM172.57 72.6751L171.316 71.3681L170.234 72.4066L171.488 73.7136L172.57 72.6751ZM171.326 71.3783C167.176 66.8869 162.119 60.3315 162.119 51.1757H160.619C160.619 60.9218 166.013 67.839 170.224 72.3963L171.326 71.3783ZM162.119 51.1757C162.119 39.0691 172.708 28.3989 187.288 28.3989V26.8989C171.977 26.8989 160.619 38.1469 160.619 51.1757H162.119ZM187.288 28.3989C201.955 28.3989 210.889 37.1354 210.889 46.7519H212.389C212.389 36.0589 202.511 26.8989 187.288 26.8989V28.3989ZM210.889 46.7519C210.889 52.7077 208.188 57.1053 203.651 60.665C199.081 64.2515 192.679 66.9585 185.372 69.4688L185.859 70.8874C193.185 68.3707 199.794 65.5981 204.577 61.8451C209.395 58.0652 212.389 53.2632 212.389 46.7519H210.889ZM185.075 70.6984L216.638 103.475L217.719 102.435L186.156 69.6579L185.075 70.6984ZM217.821 103.342C221.652 96.9952 223.886 89.4216 223.886 81.5393H222.386C222.386 89.1405 220.23 96.4471 216.536 102.567L217.821 103.342ZM223.886 81.5393C223.886 79.5003 223.465 77.8135 222.641 76.4403C221.814 75.0644 220.614 74.0573 219.145 73.3271C216.248 71.8865 212.225 71.4893 207.676 71.439L207.66 72.9389C212.203 72.9891 215.915 73.3963 218.478 74.6703C219.739 75.2975 220.702 76.1252 221.355 77.2126C222.009 78.3026 222.386 79.7075 222.386 81.5393H223.886ZM208.418 72.189V70.6808H206.918V72.189H208.418ZM207.668 71.4308H241.217V69.9308H207.668V71.4308ZM240.467 70.6808V72.189H241.967V70.6808H240.467ZM241.208 71.439C236.707 71.4893 233.204 71.9357 230.662 73.4839C228.056 75.0722 226.595 77.7278 225.948 81.8245L227.43 82.0585C228.037 78.2124 229.347 76.042 231.443 74.7649C233.605 73.4477 236.738 72.9891 241.225 72.9389L241.208 71.439ZM225.948 81.8274C224.707 89.883 222.02 97.5347 218.203 104.085L219.499 104.841C223.415 98.1195 226.163 90.2877 227.43 82.0557L225.948 81.8274ZM218.308 104.98L220.607 107.393L221.693 106.359L219.394 103.946L218.308 104.98ZM220.61 107.396C231.196 118.386 238.566 122.776 245.739 123.508L245.891 122.015C239.269 121.34 232.216 117.284 221.69 106.356L220.61 107.396ZM245.065 122.761V124.069H246.565V122.761H245.065ZM245.815 123.319H223.867V124.819H245.815V123.319ZM224.208 123.4C220.764 121.646 218.01 119.504 211.964 113.387L210.897 114.441C216.974 120.59 219.864 122.871 223.527 124.737L224.208 123.4Z" fill="#E3CFD4" mask="url(#path-4-inside-2_543_1253)"/>
<path d="M150.249 153.454V139.927H243.561V153.454H150.249Z" stroke="#E3CFD4" stroke-width="0.75"/>
</g>
<defs>
<clipPath id="clip0_543_1253">
<rect width="396.418" height="167" fill="white"/>
</clipPath>
</defs>
</svg>
