<svg width="29" height="12" viewBox="0 0 29 12" fill="none" xmlns="http://www.w3.org/2000/svg">
<path d="M4.13408 11.5896C2.20049 11.5896 0.72832 10.447 0.413379 8.71118H2.2957C2.5374 9.50952 3.24053 10.0076 4.14873 10.0076C5.69414 10.0076 6.60967 8.5647 6.60967 6.14771C6.60967 6.14771 6.5584 6.14771 6.54375 6.14771C6.53643 6.14771 6.50713 6.14771 6.50713 6.14771H6.48516C5.98711 7.15112 4.98369 7.72974 3.7459 7.72974C1.73174 7.72974 0.266894 6.25024 0.266894 4.21411C0.266894 2.04614 1.89287 0.500732 4.19268 0.500732C5.73809 0.500732 6.96123 1.23315 7.67168 2.58813C8.1624 3.45972 8.41875 4.58765 8.41875 5.92798C8.41875 9.48755 6.82207 11.5896 4.13408 11.5896ZM4.2 6.22827C5.4085 6.22827 6.29473 5.36401 6.29473 4.18481C6.29473 2.99097 5.38652 2.07544 4.20732 2.07544C3.02812 2.07544 2.11992 2.97632 2.11992 4.15552C2.11992 5.36401 2.98418 6.22827 4.2 6.22827ZM11.4366 10.2126C10.7481 10.2126 10.2647 9.7146 10.2647 9.05542C10.2647 8.38892 10.7481 7.89819 11.4366 7.89819C12.1324 7.89819 12.6085 8.38892 12.6085 9.05542C12.6085 9.7146 12.1324 10.2126 11.4366 10.2126ZM11.4366 4.71948C10.7481 4.71948 10.2647 4.22876 10.2647 3.56958C10.2647 2.90308 10.7481 2.41235 11.4366 2.41235C12.1324 2.41235 12.6085 2.90308 12.6085 3.56958C12.6085 4.22876 12.1324 4.71948 11.4366 4.71948ZM19.6107 11.3333V9.36304H14.4472V7.67847C15.3993 5.92798 16.8861 3.5769 18.7538 0.764404H21.4198V7.76636H22.848V9.36304H21.4198V11.3333H19.6107ZM16.1977 7.70044V7.8103H19.64V2.30249H19.5375C18.5268 3.79663 17.4281 5.53247 16.1977 7.70044ZM26.8767 11.3333V2.6687H26.7521L24.1228 4.5144V2.698L26.884 0.764404H28.7663V11.3333H26.8767Z" fill="white"/>
</svg>
