<svg width="16" height="12" viewBox="0 0 16 12" fill="none" xmlns="http://www.w3.org/2000/svg">
<path id="Wifi" fill-rule="evenodd" clip-rule="evenodd" d="M7.66707 2.61504C9.8918 2.61514 12.0315 3.46925 13.6438 5.00084C13.7652 5.11909 13.9593 5.1176 14.0789 4.9975L15.2395 3.82717C15.3 3.76626 15.3338 3.68375 15.3333 3.5979C15.3328 3.51205 15.2981 3.42994 15.2368 3.36974C11.0049 -0.682491 4.32857 -0.682491 0.0966565 3.36974C0.0353544 3.4299 0.000572274 3.51198 6.99859e-06 3.59783C-0.000558277 3.68368 0.0331399 3.76621 0.0936446 3.82717L1.25459 4.9975C1.37409 5.11778 1.56831 5.11927 1.68965 5.00084C3.30221 3.46915 5.44212 2.61504 7.66707 2.61504ZM7.66707 6.42263C8.88942 6.42255 10.0681 6.87651 10.9742 7.69628C11.0968 7.81263 11.2898 7.8101 11.4093 7.6906L12.5685 6.52027C12.6296 6.45888 12.6635 6.3756 12.6626 6.28907C12.6617 6.20253 12.6261 6.11996 12.5639 6.05983C9.8047 3.49542 5.53178 3.49542 2.77262 6.05983C2.7103 6.11996 2.67474 6.20257 2.67392 6.28914C2.6731 6.3757 2.70709 6.45897 2.76827 6.52027L3.92721 7.6906C4.04667 7.8101 4.23972 7.81263 4.36227 7.69628C5.26774 6.87705 6.44553 6.42313 7.66707 6.42263ZM9.98929 8.98446C9.99106 9.07124 9.95692 9.15491 9.89492 9.2157L7.88962 11.2377C7.83084 11.2971 7.75069 11.3306 7.66707 11.3306C7.58345 11.3306 7.5033 11.2971 7.44452 11.2377L5.43888 9.2157C5.37693 9.15486 5.34284 9.07117 5.34468 8.98439C5.34652 8.89761 5.38411 8.81544 5.44859 8.75727C6.72925 7.675 8.60489 7.675 9.88555 8.75727C9.94998 8.81548 9.98752 8.89769 9.98929 8.98446Z" fill="white"/>
</svg>
